<svg width="64" height="60" xmlns="http://www.w3.org/2000/svg"><g fill="none" fill-rule="evenodd"><path d="M36 8v1c0 15.251 10.474 23.911 12.999 25.776C51.521 32.906 62 24.22 62 9V8h-3a.995.995 0 0 1-.515-.143L49 2.166l-9.485 5.691A.995.995 0 0 1 39 8h-3zm13 29a1 1 0 0 1-.541-.159C47.869 36.462 34 27.335 34 9V7a1 1 0 0 1 1-1h3.723L48.485.143c.317-.19.713-.19 1.03 0L59.277 6H63a1 1 0 0 1 1 1v2c0 18.335-13.869 27.462-14.459 27.841A1 1 0 0 1 49 37z" fill="#5FCF3F"/><path d="M40.029 12c.483 8.37 6.863 15.476 8.97 17.606 2.106-2.132 8.488-9.25 8.972-17.606h-1.258L49 7.18 41.287 12h-1.258zM49 32.346l-.669-.603C47.909 31.363 38 22.315 38 11v-1h2.713L49 4.82 57.287 10H60v1c0 11.315-9.909 20.363-10.331 20.743l-.669.603z" fill="#5FCF3F"/><path fill="#B4D9FF" d="M6 18h2v-2H6zM10 18h2v-2h-2zM14 18h2v-2h-2zM6 22h14v-2H6zM6 26h6v-2H6zM1 14h19v-2H1zM1 56h52v-2H1z"/><path d="M24 24h6V10h-6v14zm28 36H2c-1.103 0-2-.897-2-2V10c0-1.103.897-2 2-2h30v18H22V10H2v48h50V37h2v21c0 1.103-.897 2-2 2z" fill="#B4D9FF"/><path d="M10.704 48H7.337v-7.689h2.992c.521 0 .97.062 1.348.187.378.125.662.293.853.506.344.396.517.843.517 1.342 0 .601-.195 1.049-.584 1.342a2.101 2.101 0 0 1-.274.192 7.806 7.806 0 0 1-.275.127c.476.103.856.317 1.138.644.282.326.424.731.424 1.215 0 .535-.184 1.008-.55 1.419-.426.477-1.166.715-2.223.715zm-1.65-4.576h.813c.477 0 .831-.051 1.062-.154.231-.103.346-.324.346-.666 0-.34-.106-.566-.319-.676-.212-.11-.571-.165-1.077-.165h-.825v1.661zm0 3.124h1.176c.492 0 .86-.06 1.106-.181.246-.122.368-.36.368-.715 0-.356-.13-.59-.39-.705-.26-.113-.676-.17-1.248-.17H9.053v1.771zm12.1-3.685c0 1.232-.488 2.028-1.463 2.387L21.637 48h-2.113l-1.704-2.453h-1.189V48h-1.716v-7.689h2.915c1.196 0 2.048.202 2.558.605.51.403.765 1.052.765 1.947zm-3.267 1.199c.586 0 .986-.095 1.198-.286.213-.19.32-.493.32-.908 0-.414-.11-.698-.33-.852-.22-.154-.605-.231-1.155-.231h-1.288v2.277h1.255zM28.392 48l-.715-1.661h-3.224L23.738 48h-1.825l3.322-7.689h1.66L30.218 48h-1.826zm-2.322-5.401l-.968 2.233h1.925l-.957-2.233zm10.417-2.288h1.716V48h-1.716l-3.663-4.818V48H31.11v-7.689h1.605l3.773 4.95v-4.95zm6.325 0c1.372 0 2.424.335 3.157 1.007.734.67 1.1 1.604 1.1 2.799 0 1.195-.357 2.141-1.072 2.838-.715.697-1.806 1.045-3.273 1.045h-2.628v-7.689h2.717zm.089 6.171c.784 0 1.387-.198 1.809-.594.422-.396.633-.972.633-1.727 0-.755-.211-1.336-.633-1.744-.422-.407-1.069-.61-1.941-.61h-.957v4.675H42.9z" fill="#49668F"/></g></svg>