<svg width="64" height="60" xmlns="http://www.w3.org/2000/svg"><g fill="none" fill-rule="evenodd"><path fill="#B4D9FF" d="M31 59h2V41h-2zM49 59h-2v-.829l-5.943-16.838 1.886-.666 6 17c.038.107.057.22.057.333v1M17 59h-2v-1c0-.113.019-.226.057-.333l6-17 1.886.666L17 58.171V59"/><path d="M59 42H5a1 1 0 0 1-1-1V12h2v28h52V12h2v29a1 1 0 0 1-1 1M2 8h60V6H39c-.379 0-.725-.214-.895-.553L36.382 2h-8.764l-1.723 3.447c-.17.339-.516.553-.895.553H2v2zm61 2H1a1 1 0 0 1-1-1V5a1 1 0 0 1 1-1h23.382L26.105.553C26.275.214 26.621 0 27 0h10c.379 0 .725.214.895.553L39.618 4H63a1 1 0 0 1 1 1v4a1 1 0 0 1-1 1z" fill="#B4D9FF"/><path fill="#B4D9FF" d="M29 6h6V4h-6zM0 60h64v-2H0z"/><path d="M26 20c-1.103 0-2-.897-2-2s.897-2 2-2 2 .897 2 2-.897 2-2 2M36 34c-1.103 0-2-.897-2-2s.897-2 2-2 2 .897 2 2-.897 2-2 2" fill="#5FCF3F"/><path d="M16 30h-6v-2h6c2.206 0 4-1.794 4-4v-6c0-3.309 2.691-6 6-6s6 2.691 6 6v2h-2v-2c0-2.206-1.794-4-4-4s-4 1.794-4 4v6c0 3.309-2.691 6-6 6M36 38c-3.309 0-6-2.691-6-6v-2h2v2c0 2.206 1.794 4 4 4s4-1.794 4-4v-6c0-3.309 2.691-6 6-6h8v2h-8c-2.206 0-4 1.794-4 4v6c0 3.309-2.691 6-6 6" fill="#5FCF3F"/><path d="M50.707 25.707l-1.414-1.414L52.586 21l-3.293-3.293 1.414-1.414 4 4a.999.999 0 0 1 0 1.414l-4 4M30 24h2v-2h-2zM30 28h2v-2h-2z" fill="#5FCF3F"/><path fill="#49668F" d="M8 14h2v-2H8zM54 14h2v-2h-2zM54 38h2v-2h-2zM8 38h2v-2H8z"/></g></svg>